<svg xmlns="http://www.w3.org/2000/svg" height="20" viewBox="0 -960 960 960" width="20"><path d="M480-373q45 0 76-31t31-76q0-45-31-76t-76-31q-45 0-76 31t-31 76q0 45 31 76t76 31Zm-.226 46Q415-327 371-371.226t-44-109Q327-545 371.226-589t109-44Q545-633 589-588.774t44 109Q633-415 588.774-371t-109 44ZM84-457q-9.25 0-16.125-6.825-6.875-6.824-6.875-16Q61-489 67.875-496T84-503h122q9.25 0 16.125 6.825 6.875 6.824 6.875 16Q229-471 222.125-464T206-457H84Zm670 0q-9.25 0-16.125-6.825-6.875-6.824-6.875-16Q731-489 737.875-496T754-503h122q9.25 0 16.125 6.825 6.875 6.824 6.875 16Q899-471 892.125-464T876-457H754ZM480.175-731Q471-731 464-737.875T457-754v-122q0-9.25 6.825-16.125 6.824-6.875 16-6.875Q489-899 496-892.125T503-876v122q0 9.25-6.825 16.125-6.824 6.875-16 6.875Zm0 670Q471-61 464-67.875T457-84v-122q0-9.25 6.825-16.125 6.824-6.875 16-6.875Q489-229 496-222.125T503-206v122q0 9.25-6.825 16.125-6.824 6.875-16 6.875ZM270-659l-69-69q-7-8-7.5-15.5t7.804-15.5q7.131-8 14.413-8Q223-767 232-759l70 68q9 7.941 9 16.529 0 8.589-8.5 16.53Q296-650 287-650t-17-9Zm458 458-70-68q-9-7.667-8.5-15.333Q650-292 658-302q6.5-8 15.25-8t16.75 9l69 69q7 8 7.5 15.5t-7.326 15.5q-8.174 8-14.674 8t-16.5-8Zm-70.059-456.5Q650-664 650-673t9-17l69-69q9-7 16-7t15 7.348q8 7.652 8 14.152 0 6.5-8 16.5l-68 70q-7.941 9-16.529 9-8.589 0-16.53-8.5ZM201-200.783q-8-7.652-8-14.934Q193-223 201-232l68-70q7.667-8 15.333-7.5Q292-309 302-302q7 7.5 6.542 15.917-.459 8.416-7.542 16.083l-69 69q-9 8-16 8.5t-15-8.283ZM480-480Z"/></svg>